<?xml version="1.0" encoding="UTF-8"?>
<!DOCTYPE svg PUBLIC "-//W3C//DTD SVG 1.0//EN" "http://www.w3.org/TR/2001/REC-SVG-20010904/DTD/svg10.dtd">
<!-- Creator: CorelDRAW 2020 (64-Bit) -->
<svg xmlns="http://www.w3.org/2000/svg" xml:space="preserve" width="2321px" height="447px" version="1.0" style="shape-rendering:geometricPrecision; text-rendering:geometricPrecision; image-rendering:optimizeQuality; fill-rule:evenodd; clip-rule:evenodd"
viewBox="0 0 2387.01 459.58"
 xmlns:xlink="http://www.w3.org/1999/xlink"
 xmlns:xodm="http://www.corel.com/coreldraw/odm/2003">
 <defs>
  <style type="text/css">
   <![CDATA[
    .fil1 {fill:black}
    .fil0 {fill:black;fill-rule:nonzero}
   ]]>
  </style>
 </defs>
 <g id="Layer_x0020_1">
  <metadata id="CorelCorpID_0Corel-Layer"/>
  <path class="fil0" d="M792.45 395.04c-21.94,-0.14 -32.84,-9.18 -32.62,-27.11l1.47 -271.84 109.05 0 -1.09 180.32 170.44 -148.43c23.74,-20.68 52.05,-31.89 80.54,-31.89l65.12 0 -312.03 271.84c-20.7,17.93 -42.02,26.97 -64.14,27.11l-16.74 0z"/>
  <path class="fil0" d="M1494.85 239.69c-7.73,13.67 -19.93,25.27 -36.52,34.87 -15.99,9.68 -31.71,14.59 -47.03,14.59l-78.09 0 72.12 105.89 -111.84 0c-25.98,0 -45.21,-9.2 -56.15,-26.85l-48.98 -79.04 50.25 -87.17 188.1 0 11.26 -19.36 -210.01 0 -122.56 212.42 -96.75 0 148.27 -257.04c6.37,-11.03 15.62,-20.49 27.82,-28.6 14.05,-8.9 27.3,-13.31 39.84,-13.31l298.1 0c15.24,0 25.37,4.77 30.52,14.37 3.77,7.12 4.11,15.23 0.99,24.41 -1.13,3.35 -2.69,6.76 -4.72,10.39l-54.62 94.43z"/>
  <path class="fil0" d="M1908.45 239.69c-7.74,13.67 -19.94,25.27 -36.53,34.87 -15.99,9.68 -31.7,14.59 -47.02,14.59l-78.1 0 72.13 105.89 -111.85 0c-25.98,0 -45.21,-9.2 -56.15,-26.85l-48.98 -79.04 50.25 -87.17 188.1 0 11.26 -19.36 -210.01 0 -122.56 212.42 -96.75 0 148.28 -257.04c6.36,-11.03 15.61,-20.49 27.81,-28.6 14.05,-8.9 27.3,-13.31 39.84,-13.31l298.11 0c15.24,0 25.36,4.77 30.51,14.37 3.78,7.12 4.12,15.23 1,24.41 -1.14,3.35 -2.7,6.76 -4.72,10.39l-54.62 94.43z"/>
  <path class="fil0" d="M2015.55 289.15l50.24 -87.17 188.11 0 10.94 -19.14 -209.92 0 -72.39 125.45 209.93 0 11.19 -19.14 -188.1 0zm212.63 92.73c-13.53,8.75 -26.61,13.16 -39.16,13.16l-353.18 0 139.72 -242.13c19.33,-33.5 59.38,-56.82 97.58,-56.82l288.4 0c11.75,0 19.52,3.98 23.35,12.1 2.73,5.97 2.84,12.67 0.28,20.2 -1.04,3.07 -2.53,6.27 -4.38,9.61l-48.8 84.64c-13.37,12.43 -29.83,21.93 -47.18,27.2 6.94,1.6 11.79,5.31 14.56,11.19 2.15,4.7 2.68,9.84 1.56,15.5l-44.17 76.6c-6.34,10.96 -15.88,20.56 -28.58,28.75z"/>
  <path class="fil1" d="M292.73 0l337.9 0c58.41,0 82.25,50.19 55.09,99.56l-31.67 57.57 -37.71 -0.13 -100.89 -0.65 -158.79 190.52c-5.32,6.39 -12.47,9.74 -20.78,9.77l-58.58 0.14c-8.36,0.02 -15.54,-3.17 -21.27,-9.26 -5.72,-6.08 -8.41,-13.44 -7.95,-21.78l6.09 -111.19 -104.89 0 35.13 -63.87c31.77,0 86.16,0.07 127.76,0.09 8.39,0.01 15.61,3.12 21.37,9.21 5.76,6.09 8.46,13.47 8.01,21.84l-4.88 88.93 135.24 -166.56c4.93,-6.06 12.46,-8.17 20.29,-8.1l167.26 1.47 5.25 -9.55c19.37,-35.22 4.04,-64.03 -34.08,-64.03l-337.9 0c-38.12,0 -85.17,28.81 -104.54,64.03l-156 283.56c-19.37,35.21 -4.03,64.03 34.09,64.03l337.9 0c38.12,0 85.16,-28.82 104.53,-64.03l101.68 -184.83 27.33 0.07 -108 196.32c-23.01,41.82 -77.48,76.45 -125.54,76.45l-337.9 0c-58.42,0 -82.26,-50.19 -55.1,-99.57l156 -283.56c23.01,-41.82 77.48,-76.45 125.55,-76.45z"/>
 </g>
</svg>
